# xmcd
#
# Track frame offsets: 
#        150
#        25396
#        40897
#        68625
#        107592
#        149455
#        170469
#        206181
#        228839
#        284871
#
# Disc length: 3993 seconds
#
# Revision: 0
# Processed by: cddbd v1.5.1PL2 Copyright (c) Steve Scherf et al.
# Submitted via: ExactAudioCopy v0.95b3
#
DISCID=950f970a
DTITLE=15-60-75 - Numbers Blues
DYEAR=1900
DGENRE=Blues
TTITLE0=Must Have Done Somebody Wrong
TTITLE1=You Don't Love Me
TTITLE2=Walkin' Blues
TTITLE3=Brand New Lover
TTITLE4=Jimmy Bell
TTITLE5=HooDoo Man
TTITLE6=That's Alright
TTITLE7=Matchbox Defined
TTITLE8=Nine Below Zero
TTITLE9=She Becomes The Jones
EXTD=
EXTT0=
EXTT1=
EXTT2=
EXTT3=
EXTT4=
EXTT5=
EXTT6=
EXTT7=
EXTT8=
EXTT9=
PLAYORDER=
